HIERARCHY
ROOT pelvis
{
  OFFSET 0 100 0
  CHANNELS 6 Xposition Yposition Zposition Zrotation Xrotation Yrotation
  JOINT pelvis_right_femur
  {
    OFFSET -10.78128 -3.44521 -0.5502486
    CHANNELS 3 Zrotation Xrotation Yrotation
    JOINT right_femur_tibia
    {
      OFFSET -0.8047443 -44.0398 -0.1307829
      CHANNELS 3 Zrotation Xrotation Yrotation
      JOINT right_tibia_foot
      {
        OFFSET 3.006224 -47.83518 -5
        CHANNELS 3 Zrotation Xrotation Yrotation
        End Site
        {
          OFFSET 0 -5 15
        }
      }
    }
  }
  JOINT pelvis_left_femur
  {
    OFFSET 10.78128 -3.44521 -0.5502486
    CHANNELS 3 Zrotation Xrotation Yrotation
    JOINT left_femur_tibia
    {
      OFFSET 0.8047443 -44.0398 -0.1307829
      CHANNELS 3 Zrotation Xrotation Yrotation
      JOINT left_tibia_foot
      {
        OFFSET -4.370144 -48.10324 -4.275266
        CHANNELS 3 Zrotation Xrotation Yrotation
        End Site
        {
          OFFSET 0 -5 15
        }
      }
    }
  }
  JOINT pelvis_spine1
  {
    OFFSET 0 6.468898 -3.129235
    CHANNELS 3 Zrotation Xrotation Yrotation
    JOINT spine1
    {
      OFFSET 0 23.15396 4.99043
      CHANNELS 3 Zrotation Xrotation Yrotation
      JOINT spine2
      {
        OFFSET 0 20.79997 -5.064912
        CHANNELS 3 Zrotation Xrotation Yrotation
        JOINT neck
        {
          OFFSET 0 14.38658 9.616178
          CHANNELS 3 Zrotation Xrotation Yrotation
          End Site
          {
            OFFSET 0 20 0
          }
        }
      }
      JOINT right_manubrium
      {
        OFFSET -5.722621 16.35077 3.967754
        CHANNELS 3 Zrotation Xrotation Yrotation
        JOINT right_clavicle
        {
          OFFSET -13.16364 1.694482 -4.693211
          CHANNELS 3 Zrotation Xrotation Yrotation
          JOINT right_humerus
          {
            OFFSET -28.5034 -0.3100689 -2.792744
            CHANNELS 3 Zrotation Xrotation Yrotation
            JOINT right_radius
            {
              OFFSET -25.15693 0.02248979 -1.271978
              CHANNELS 3 Zrotation Xrotation Yrotation
              End Site
              {
                OFFSET -15 0 0
              }
            }
          }
        }
      }
      JOINT left_manubrium
      {
        OFFSET 5.722621 16.35077 3.967754
        CHANNELS 3 Zrotation Xrotation Yrotation
        JOINT left_clavicle
        {
          OFFSET 13.16364 1.694482 -4.693211
          CHANNELS 3 Zrotation Xrotation Yrotation
          JOINT left_humerus
          {
            OFFSET 29.39168 -1.063119 -2.237045
            CHANNELS 3 Zrotation Xrotation Yrotation
            JOINT left_radius
            {
              OFFSET 24.59957 -0.9528479 0.9047498
              CHANNELS 3 Zrotation Xrotation Yrotation
              End Site
              {
                OFFSET 15 -0 -0
              }
            }
          }
        }
      }
    }
  }
}
MOTION
Frames: 17
Frame Time: 0.0416666666667
-1091.136 105.0685 2397.264 -5.847643 -2.894321 -64.57385 6.141941 1.464266 0.5754402 -0 9.198248 -0 -11.9994 -6.468986 -2.086715 -0.6666076 -13.2805 -4.988636 -0 56.54079 -0 0.4617554 -3.416359 14.26496 1.830278 -1.729097 7.589394 -0.8316558 15.49126 -6.227422 2.03212 19.14917 1.652938 -1.215645 -21.00787 5.59061 -7.357889 -29.26871 10.17082 97.9956 21.06298 -14.44758 -0 0 21.35346 -19.5506 12.0821 12.86778 -0.0270174 -22.88072 -7.774986 -86.67089 12.14436 30.35542 0 0 -26.40192 2.141753 9.245075 13.5826
-1095.564 105.1867 2399.391 -6.006112 -3.09085 -65.23064 5.901223 5.649127 0.5143791 -0 7.927656 -0 -11.68763 -8.981955 -1.996915 0.7422308 -17.88225 -4.099942 -0 47.40836 -0 0.5912528 -3.739061 15.47715 1.679713 -1.479782 7.951365 -0.9917174 15.58429 -5.865432 2.054748 18.8215 1.268009 -1.491372 -21.03045 5.418614 -7.479564 -30.42453 9.982161 97.0503 21.6632 -12.25099 -0 0 23.97227 -19.52753 12.54937 13.55317 -0.4422432 -21.66968 -7.506232 -87.61992 11.87923 33.00994 0 0 -24.00661 1.07762 8.516829 14.67656
-1099.94 104.6657 2401.595 -5.993379 -2.781891 -65.79894 5.98212 9.206647 0.4749458 -0 7.355049 -0 -11.2666 -11.79321 -1.89878 2.29071 -21.3914 -3.253462 -0 36.08961 -0 0.6636881 -3.832535 16.42928 1.501012 -1.245455 8.24444 -1.119942 15.62385 -5.534824 2.060607 18.56931 0.9689114 -1.71747 -21.11221 5.287634 -7.598443 -31.40914 9.800882 96.19966 22.15006 -10.28915 -0 0 26.19814 -19.52212 12.85532 14.17597 -0.778037 -20.58623 -7.25003 -88.49341 11.67799 35.28231 0 0 -21.83831 0.1710127 7.82655 15.60291
-1104.365 103.6876 2404 -5.70939 -2.076651 -66.33122 6.113215 12.03631 0.4947539 -0 7.7749 -0 -10.70614 -14.57806 -1.719352 3.593684 -23.61137 -2.548977 -0 24.88032 -0 0.7309654 -3.617713 16.9165 1.307451 -1.048357 8.45143 -1.205057 15.61158 -5.253036 2.047747 18.40923 0.7801133 -1.878893 -21.2658 5.208911 -7.704924 -32.17496 9.643701 95.49189 22.46766 -8.684542 -0 0 27.90017 -19.55002 12.9756 14.71923 -1.009788 -19.69638 -7.024243 -89.26849 11.57575 37.06766 0 0 -19.98275 -0.5246071 7.225563 16.31089
-1108.969 102.5261 2406.706 -5.226192 -1.244277 -66.8839 6.009343 14.13548 0.5829843 -0 9.351991 -0 -10.0517 -16.72187 -1.416774 4.282402 -24.43404 -2.149803 -0 15.93737 -0 0.7856095 -3.194422 17.01035 1.115944 -0.9029287 8.568719 -1.244355 15.55647 -5.030815 2.018522 18.34268 0.7063966 -1.971053 -21.48389 5.185057 -7.790925 -32.70396 9.522639 94.95673 22.59834 -7.507062 -0 0 29.02668 -19.6158 12.91993 15.16986 -1.131073 -19.03726 -6.841557 -89.9265 11.5861 38.32621 0 0 -18.49501 -0.9894861 6.75163 16.78444
-1113.881 101.4306 2409.752 -4.78105 -0.632302 -67.50589 5.478119 15.7511 0.6205726 -0 11.91077 -0 -9.499672 -17.61011 -0.9804144 4.115398 -23.98553 -2.35198 -0 10.45036 -0 0.654528 -2.835877 17.04165 0.9422078 -0.8136856 8.602224 -1.242398 15.4705 -4.872677 1.978225 18.36017 0.7365481 -1.997356 -21.74311 5.211339 -7.850759 -32.99926 9.443219 94.60478 22.56003 -6.77584 -0 0 29.58975 -19.71292 12.7213 15.51591 -1.150038 -18.61857 -6.708697 -90.44833 11.70331 39.06532 0 0 -17.40461 -1.230935 6.425581 17.03323
-1119.184 100.5559 2413.102 -4.647752 -0.5422625 -68.21165 4.434282 17.31304 0.3903352 -0 15.10559 -0 -9.365136 -16.76669 -0.3750092 3.032374 -22.5889 -3.518315 -0 8.362266 -0 0.07773862 -2.854878 17.38456 0.7977804 -0.7769047 8.562192 -1.207626 15.36486 -4.779208 1.932898 18.44719 0.8512105 -1.965402 -22.01378 5.278847 -7.88231 -33.07457 9.404847 94.43449 22.39287 -6.47672 -0 0 29.63555 -19.82683 12.41937 15.74524 -1.082807 -18.43197 -6.627919 -90.81231 11.90969 39.31492 0 0 -16.72718 -1.27097 6.251954 17.07987
-1124.883 99.97782 2416.662 -5.003105 -1.139119 -68.95267 2.865689 19.12111 -0.2195963 -0 18.89319 -0 -9.931635 -13.77857 0.4813773 1.136308 -20.51883 -5.882647 -0 8.860121 -0 -1.051199 -3.438371 18.20705 0.6894771 -0.7842137 8.458615 -1.148824 15.24732 -4.750114 1.887485 18.58956 1.030974 -1.883346 -22.26924 5.378121 -7.887827 -32.94392 9.402518 94.44317 22.14435 -6.586301 -0 0 29.21275 -19.93857 12.04563 15.84398 -0.9469393 -18.46363 -6.5995 -90.9925 12.18386 39.10329 0 0 -16.47998 -1.1336 6.22278 16.94834
-1130.89 99.75662 2420.313 -5.83884 -2.383171 -69.59891 0.8816399 20.91953 -1.029396 -0 23.82684 -0 -11.30044 -8.297213 1.666882 -1.285025 -17.82222 -9.265397 -0 10.97761 -0 -2.457628 -4.547146 19.34854 0.6206781 -0.8254305 8.298707 -1.073142 15.12113 -4.786913 1.845006 18.77633 1.261398 -1.757639 -22.49033 5.501646 -7.874636 -32.61437 9.428196 94.63777 21.86137 -7.092399 -0 0 28.34983 -20.02576 11.61487 15.79316 -0.7576838 -18.7047 -6.623958 -90.95487 12.50541 38.43895 0 0 -16.69908 -0.8365574 6.321048 16.65729
-1137.009 99.98488 2423.931 -6.923265 -3.932554 -69.96023 -1.115241 21.61222 -1.61817 -0 30.73303 -0 -13.28031 -0.5012248 3.140087 -3.655429 -14.41477 -12.8213 -0 13.73036 -0 -3.490767 -5.896974 20.3844 0.5930121 -0.8893019 8.087376 -0.9861118 14.98484 -4.894032 1.806591 18.99948 1.533761 -1.592959 -22.66527 5.64449 -7.856347 -32.08482 9.470905 95.04133 21.59099 -8.001803 -0 0 27.04978 -20.061 11.12341 15.56591 -0.5283704 -19.15493 -6.702822 -90.6539 12.85374 37.30587 0 0 -17.45021 -0.3904823 6.520215 16.221
-1142.955 100.7533 2427.386 -7.910063 -5.157421 -69.89049 -2.377745 19.66065 -1.674713 -0 39.61022 -0 -15.32496 8.133655 4.587518 -5.218881 -10.35735 -15.27804 -0 16.04842 -0 -3.540057 -7.11757 20.88429 0.6071948 -0.9633035 7.830919 -0.8929864 14.83385 -5.076642 1.771994 19.25077 1.842122 -1.394419 -22.78764 5.803252 -7.852877 -31.3548 9.516759 95.68853 21.38269 -9.32713 -0 0 25.30958 -20.01231 10.55539 15.13223 -0.2740621 -19.81633 -6.83689 -90.04009 13.20185 35.682 0 0 -18.81621 0.193685 6.78095 15.65785
-1148.45 102.0154 2430.558 -8.601272 -5.533938 -69.41407 -2.344162 14.47669 -1.287166 -0 48.52567 -0 -16.70574 14.9037 5.431299 -5.593041 -5.985418 -15.96398 -0 17.05757 -0 -2.642675 -8.098393 20.71687 0.6627914 -1.035406 7.542298 -0.8001027 14.66428 -5.334308 1.740427 19.51769 2.178506 -1.170608 -22.85405 5.974077 -7.884962 -30.44259 9.552052 96.60359 21.28046 -11.05161 -0 0 23.16319 -19.85332 9.899459 14.47784 -0.01482189 -20.6771 -7.022199 -89.08875 13.51059 33.58387 0 0 -20.84438 0.8927836 7.053833 15.00118
-1153.352 103.5056 2433.401 -9.001685 -5.120569 -68.70698 -1.325867 7.3062 -0.8212051 -0 54.37183 -0 -17.05525 17.63251 5.291739 -5.142109 -1.75739 -15.46912 -0 16.52533 -0 -1.481179 -9.106892 20.07625 0.757673 -1.099243 7.243116 -0.714698 14.47892 -5.653694 1.71171 19.78261 2.529197 -0.9344925 -22.86217 6.150658 -7.961477 -29.40026 9.57062 97.76525 21.30014 -13.09162 -0 0 20.72219 -19.58308 9.172096 13.63052 0.2269854 -21.6959 -7.24674 -87.84086 13.73322 31.11358 0 0 -23.47004 1.665448 7.297673 14.29991
-1157.701 104.8553 2435.948 -9.091218 -4.397249 -67.95533 -0.162524 0.0195452 -0.675571 -0 55.2331 -0 -16.63582 16.35607 4.407549 -4.540839 1.974394 -14.795 -0 14.85203 -0 -0.6664084 -10.47988 19.21268 0.8879039 -1.158781 6.957825 -0.642391 14.29105 -6.008109 1.68729 20.02755 2.874728 -0.700696 -22.80968 6.323314 -8.068534 -28.30712 9.579959 99.08605 21.40919 -15.29474 -0 0 18.17024 -19.23895 8.430117 12.66843 0.4363795 -22.80276 -7.492158 -86.41733 13.83446 28.45865 0 0 -26.48416 2.461522 7.505633 13.60128
-1161.65 105.7688 2438.265 -8.76844 -3.743243 -67.27301 0.5972795 -6.385162 -1.054609 -0 51.36181 -0 -15.8266 12.80446 3.276415 -4.209207 5.08833 -14.37191 -0 12.6749 -0 -0.3144193 -12.33249 18.26995 1.047715 -1.226309 6.704031 -0.5841965 14.12125 -6.366864 1.670103 20.24074 3.193641 -0.4818792 -22.69614 6.480214 -8.173981 -27.24254 9.598078 100.432 21.53493 -17.48461 -0 0 15.70439 -18.88379 7.755864 11.69441 0.6133333 -23.9196 -7.73981 -84.97986 13.80926 25.83065 0 0 -29.59533 3.239585 7.711099 12.93081
-1165.382 106.0953 2440.419 -7.983843 -3.266825 -66.70571 0.8875149 -11.80942 -1.884947 -0 44.23636 -0 -14.76624 8.811943 2.226192 -4.240848 7.637861 -14.12422 -0 10.55142 -0 -0.2063229 -14.5335 17.34044 1.229086 -1.314832 6.488021 -0.5361061 13.98933 -6.705965 1.66307 20.41877 3.467526 -0.2871974 -22.52681 6.610454 -8.244388 -26.26349 9.642963 101.6687 21.59865 -19.51362 -0 0 13.4752 -18.57759 7.225234 10.79833 0.7699113 -24.98188 -7.975511 -83.6709 13.68362 23.39762 0 0 -32.53298 3.975526 7.963643 12.28999
-1169.065 105.815 2442.476 -6.799692 -2.924363 -66.25671 0.8887435 -16.47422 -2.942262 -0 35.49871 -0 -13.49173 5.519807 1.405534 -4.562609 9.730263 -13.87153 -0 8.873632 -0 -0.03713983 -16.81253 16.52502 1.421623 -1.432007 6.30757 -0.4914836 13.90832 -7.011681 1.667523 20.564 3.684326 -0.122482 -22.31434 6.706796 -8.258207 -25.40164 9.724431 102.6965 21.54546 -21.28535 -0 0 11.5688 -18.35916 6.885464 10.03792 0.9211695 -25.94594 -8.190207 -82.58143 13.49987 21.26118 0 0 -35.10609 4.658644 8.299993 11.66903
